# xmcd
#
# Track frame offsets:
#	150
#	16406
#	26662
#
# Disc length: 572 seconds
#
# Revision: 1
# Processed by: cddbd v1.5.1PL0 Copyright (c) Steve Scherf et al.
# Submitted via: CDex 1.50Beta5
#
DISCID=1a023a03
DTITLE=Anatakikou - リリー
DYEAR=2002
DGENRE=Pop
TTITLE0=リリー
TTITLE1=五つの夜まで
TTITLE2=モネラ氏の庭園
EXTD=
EXTT0=
EXTT1=
EXTT2=
PLAYORDER=
